# Blender v2.92.0 OBJ File: 'SHELF.blend'
# www.blender.org
mtllib SHELFFinalOBJ.mtl
o Cube_Cube.001
v -0.072283 0.088001 -0.491965
v -0.072283 5.664863 -0.491965
v -0.072283 0.088001 -0.629670
v -0.072283 5.664863 -0.629670
v 0.072283 0.088001 -0.491965
v 0.072283 5.664863 -0.491965
v 0.072283 0.088001 -0.629670
v 0.072283 5.664863 -0.629670
v -0.072283 5.489365 -0.491965
v -0.072283 5.489365 -0.629670
v 0.072283 5.489365 -0.629670
v 0.072283 5.489365 -0.491965
v -0.072283 5.664863 -4.167081
v 0.072283 5.664863 -4.167081
v -0.072283 5.489365 -4.167081
v 0.072283 5.489365 -4.167081
v -0.072283 5.664863 -4.021246
v -0.072283 5.489365 -4.021246
v 0.072283 5.489365 -4.021246
v 0.072283 5.664863 -4.021246
v -0.072283 0.013532 -4.167081
v 0.072283 0.013532 -4.167081
v -0.072283 0.013532 -4.021246
v 0.072283 0.013532 -4.021246
v -1.992650 5.489365 -0.491965
v -1.992650 5.664863 -0.491965
v -1.992650 5.664863 -0.629670
v -1.992650 5.489365 -0.629670
v -1.992650 5.664863 -4.167081
v -1.992650 5.489365 -4.167081
v -1.992650 5.664863 -4.021246
v -1.992650 5.489365 -4.021246
v -1.828317 5.489365 -4.167081
v -1.828317 5.664863 -4.167081
v -1.828317 5.664863 -4.021246
v -1.828317 5.489365 -4.021246
v -1.827006 5.664863 -0.491965
v -1.827006 5.489365 -0.491965
v -1.827006 5.489365 -0.629670
v -1.827006 5.664863 -0.629670
v -1.992650 0.022470 -0.491965
v -1.992650 0.022470 -0.629670
v -1.992650 0.022470 -4.167081
v -1.992650 0.022470 -4.021246
v -1.828317 0.022470 -4.167081
v -1.828317 0.022470 -4.021246
v -1.827006 0.022470 -0.491965
v -1.827006 0.022470 -0.629670
v -1.992650 5.664863 -0.629325
v -1.992650 5.489365 -0.629325
v -1.828317 5.664863 -0.629325
v -1.828317 5.489365 -0.629325
v -0.072283 0.925139 -0.629670
v 0.072283 0.925139 -0.629670
v 0.072283 0.925139 -0.491965
v -0.072283 0.925139 -0.491965
v -0.072283 1.061378 -0.491965
v -0.072283 1.061378 -0.629670
v 0.072283 1.061378 -0.629670
v 0.072283 1.061378 -0.491965
v 0.072283 0.857169 -4.167081
v -0.072283 0.920269 -4.167081
v -0.072283 0.920268 -4.021246
v 0.072283 0.857169 -4.021246
v -0.072283 1.060859 -4.167081
v 0.072283 0.997759 -4.021246
v 0.072283 0.997759 -4.167081
v -0.072283 1.060858 -4.021246
v -1.832220 1.061378 -0.629670
v -1.832220 0.925139 -0.629670
v -1.832220 0.925139 -0.491965
v -1.832220 1.061378 -0.491965
v -1.832220 1.060858 -4.021246
v -1.832220 0.920268 -4.021246
v -1.832220 0.920269 -4.167081
v -1.832220 1.060859 -4.167081
v -1.828317 2.243566 -4.167081
v -1.992650 2.243566 -4.167081
v -1.992650 2.243566 -4.021246
v -1.828317 2.243566 -4.021246
v -1.828317 2.148915 -4.167081
v -1.992650 2.148915 -4.021246
v -1.992650 2.148915 -4.167081
v -1.828317 2.148915 -4.021246
v -0.063843 2.148915 -4.021246
v -0.063843 2.243566 -4.021246
v -0.063843 2.243566 -4.167081
v -0.063843 2.148915 -4.167081
v -1.992650 3.484297 -4.167081
v -1.828317 3.484297 -4.021246
v -1.828317 3.484298 -4.167081
v -1.992650 3.484298 -4.021246
v -1.828317 3.387800 -4.167081
v -1.992650 3.387800 -4.021246
v -1.992650 3.387800 -4.167081
v -1.828317 3.387800 -4.021246
v -0.069162 3.387800 -4.021246
v -0.069162 3.484297 -4.021246
v -0.069162 3.484298 -4.167081
v -0.069162 3.387800 -4.167081
v -1.992650 4.461883 -4.167081
v -1.828317 4.461883 -4.021246
v -1.828317 4.461883 -4.167081
v -1.992650 4.461883 -4.021246
v -1.992650 4.568194 -4.167081
v -1.828317 4.568194 -4.021246
v -1.828317 4.568194 -4.167081
v -1.992650 4.568194 -4.021246
v -0.061481 4.568194 -4.167081
v -0.061481 4.461883 -4.167081
v -0.061481 4.461883 -4.021246
v -0.061481 4.568194 -4.021246
v -1.827006 4.563006 -0.491965
v -1.827006 4.563006 -0.629670
v -1.992650 4.563006 -0.629670
v -1.992650 4.563006 -0.491965
v -1.827006 4.469851 -0.491965
v -1.992650 4.469851 -0.491965
v -1.827006 4.469851 -0.629670
v -1.992650 4.469851 -0.629670
v -0.036580 4.469851 -0.629670
v -0.036580 4.563006 -0.629670
v -0.036580 4.563006 -0.491965
v -0.036580 4.469851 -0.491965
v -1.827006 3.477182 -0.491965
v -1.992650 3.477182 -0.491965
v -1.827006 3.477182 -0.629670
v -1.992650 3.477182 -0.629670
v -1.827006 3.390840 -0.491965
v -1.992650 3.390840 -0.491965
v -1.827006 3.390840 -0.629670
v -1.992650 3.390840 -0.629670
v -0.068082 3.390840 -0.629670
v -0.068082 3.477182 -0.629670
v -0.068082 3.477182 -0.491965
v -0.068082 3.390840 -0.491965
v -1.827006 2.241131 -0.491965
v -1.992650 2.241131 -0.491965
v -1.827006 2.241131 -0.629670
v -1.992650 2.241131 -0.629670
v -1.827006 2.144995 -0.491965
v -1.992650 2.144995 -0.491965
v -1.827006 2.144995 -0.629670
v -1.992650 2.144995 -0.629670
v -0.066105 2.144995 -0.629670
v -0.066105 2.241131 -0.629670
v -0.066105 2.241131 -0.491965
v -0.066105 2.144995 -0.491965
vt 0.696386 0.431834
vt 0.696386 0.418424
vt 0.708943 0.418424
vt 0.708943 0.431834
vt 0.293483 0.848892
vt 0.293483 0.862302
vt 0.280826 0.862302
vt 0.280826 0.848892
vt 0.010522 0.418424
vt 0.010522 0.431834
vt 0.000000 0.431834
vt 0.000000 0.418424
vt 0.438613 0.848892
vt 0.438613 0.862302
vt 0.427567 0.862302
vt 0.427567 0.848892
vt 0.531749 0.662925
vt 0.531749 0.673972
vt 0.521226 0.673972
vt 0.521226 0.662925
vt 0.842213 0.702138
vt 0.853259 0.702138
vt 0.853259 0.712660
vt 0.842213 0.712660
vt 0.438613 0.510537
vt 0.427567 0.510537
vt 0.010522 0.080069
vt 0.000000 0.080069
vt 0.831166 0.770189
vt 0.831166 0.431834
vt 0.842213 0.431834
vt 0.842213 0.770189
vt 0.470802 0.431151
vt 0.470802 0.769506
vt 0.460279 0.769506
vt 0.460279 0.431151
vt 0.562203 0.418424
vt 0.562203 0.431834
vt 0.551156 0.431834
vt 0.551156 0.418424
vt 0.562203 0.069286
vt 0.551156 0.064465
vt 0.551156 0.000000
vt 0.562203 0.000000
vt 0.853259 0.442978
vt 0.842213 0.442978
vt 0.842213 0.431834
vt 0.853259 0.431834
vt 0.269682 0.431834
vt 0.269682 0.418424
vt 0.280826 0.418424
vt 0.280826 0.431834
vt 0.521226 0.690311
vt 0.510180 0.690311
vt 0.510180 0.431151
vt 0.521226 0.431151
vt 0.497622 0.690311
vt 0.484212 0.690311
vt 0.484212 0.431151
vt 0.497622 0.431151
vt 0.202566 0.665240
vt 0.191519 0.665240
vt 0.191519 0.654097
vt 0.202566 0.654097
vt 0.696684 0.496299
vt 0.685638 0.501120
vt 0.685638 0.431834
vt 0.696684 0.431834
vt 0.280826 0.064465
vt 0.269682 0.064465
vt 0.269682 0.000000
vt 0.280826 0.000000
vt 0.521226 0.593639
vt 0.532370 0.593639
vt 0.532370 0.662925
vt 0.521226 0.662925
vt 0.449136 0.848892
vt 0.449136 0.862302
vt 0.438613 0.862302
vt 0.438613 0.848892
vt 0.291970 0.417741
vt 0.291970 0.431151
vt 0.280826 0.431151
vt 0.280826 0.417741
vt 0.158088 0.594022
vt 0.147566 0.594022
vt 0.147566 0.431834
vt 0.158088 0.431834
vt 0.497622 0.431151
vt 0.510180 0.431151
vt 0.510180 0.690337
vt 0.497622 0.690337
vt 0.987443 0.442978
vt 0.987443 0.431834
vt 1.000000 0.431834
vt 1.000000 0.442978
vt 0.987343 0.712660
vt 0.987343 0.702138
vt 1.000000 0.702138
vt 1.000000 0.712660
vt 0.845755 0.431151
vt 0.845755 0.417741
vt 0.858412 0.417741
vt 0.858412 0.431151
vt 0.708943 0.163171
vt 0.696386 0.163171
vt 0.696386 0.000683
vt 0.708943 0.000683
vt 0.258381 0.566018
vt 0.247237 0.566018
vt 0.247237 0.431834
vt 0.258381 0.431834
vt 0.545780 0.565335
vt 0.532370 0.565335
vt 0.532370 0.431151
vt 0.545780 0.431151
vt 0.711671 0.431151
vt 0.711671 0.417741
vt 0.190898 0.700746
vt 0.180376 0.700746
vt 0.180376 0.566663
vt 0.190898 0.566663
vt 0.268903 0.657155
vt 0.258381 0.657155
vt 0.258381 0.644498
vt 0.268903 0.644498
vt 0.179754 0.654100
vt 0.168611 0.654100
vt 0.168611 0.641543
vt 0.179754 0.641543
vt 0.012557 0.594321
vt 0.000000 0.594321
vt 0.000000 0.431834
vt 0.012557 0.431834
vt 0.291970 0.162488
vt 0.280826 0.162488
vt 0.280826 0.000000
vt 0.291970 0.000000
vt 0.858412 0.162188
vt 0.845755 0.162188
vt 0.845755 0.000000
vt 0.858412 0.000000
vt 0.532370 0.593639
vt 0.521226 0.593639
vt 0.521226 0.431151
vt 0.532370 0.431151
vt 0.293483 0.593339
vt 0.280826 0.593339
vt 0.280826 0.431151
vt 0.293483 0.431151
vt 0.449136 0.593339
vt 0.438613 0.593339
vt 0.438613 0.431151
vt 0.449136 0.431151
vt 0.170646 0.654695
vt 0.170646 0.668106
vt 0.158088 0.668106
vt 0.158088 0.654695
vt 1.000000 0.702164
vt 0.987443 0.702164
vt 0.484212 0.690337
vt 0.470802 0.690337
vt 0.470802 0.431151
vt 0.484212 0.431151
vt 0.551156 0.417741
vt 0.551156 0.431151
vt 0.279426 0.639035
vt 0.279426 0.703003
vt 0.268903 0.703003
vt 0.268903 0.639035
vt 0.831166 0.844567
vt 0.831166 0.780599
vt 0.842213 0.780599
vt 0.842213 0.844567
vt 0.010522 0.005690
vt 0.010522 0.069659
vt 0.000000 0.069659
vt 0.000000 0.005690
vt 0.438613 0.436158
vt 0.438613 0.500127
vt 0.427567 0.500127
vt 0.427567 0.436158
vt 0.213806 0.431834
vt 0.224950 0.431834
vt 0.224950 0.566316
vt 0.213806 0.566316
vt 0.696684 0.780599
vt 0.696684 0.770189
vt 0.280826 0.075207
vt 0.269682 0.075207
vt 0.696684 0.507041
vt 0.685638 0.511863
vt 0.562203 0.080029
vt 0.551156 0.075207
vt 0.696684 0.850258
vt 0.685637 0.850258
vt 0.460279 0.769546
vt 0.449136 0.769546
vt 0.449136 0.431151
vt 0.460279 0.431151
vt 0.157976 0.675330
vt 0.147566 0.675330
vt 0.147566 0.664808
vt 0.157976 0.664808
vt 0.268903 0.657156
vt 0.268903 0.668299
vt 0.258160 0.668299
vt 0.258160 0.657156
vt 0.213807 0.566316
vt 0.202663 0.566316
vt 0.202663 0.431834
vt 0.213807 0.431834
vt 0.551156 0.511863
vt 0.551156 0.501120
vt 0.235473 0.566256
vt 0.245995 0.566256
vt 0.245995 0.700738
vt 0.235473 0.700738
vt 0.293085 0.510537
vt 0.293085 0.500127
vt 0.235472 0.700738
vt 0.224950 0.700738
vt 0.224950 0.566256
vt 0.235472 0.566256
vt 0.696684 0.069286
vt 0.696684 0.080029
vt 0.202663 0.654097
vt 0.191519 0.654097
vt 0.191519 0.566662
vt 0.202663 0.566662
vt 0.291970 0.257154
vt 0.280826 0.257154
vt 0.280826 0.169720
vt 0.291970 0.169720
vt 0.012557 0.688988
vt 0.000000 0.688988
vt 0.000000 0.601554
vt 0.012557 0.601554
vt 0.708943 0.257837
vt 0.696386 0.257837
vt 0.696386 0.170403
vt 0.708943 0.170403
vt 0.147386 0.594321
vt 0.147386 0.601554
vt 0.542892 0.598766
vt 0.542892 0.587622
vt 0.550125 0.587622
vt 0.550125 0.598766
vt 0.180376 0.431834
vt 0.191519 0.431834
vt 0.191519 0.566662
vt 0.180376 0.566662
vt 0.561558 0.170403
vt 0.561558 0.163171
vt 0.191519 0.431834
vt 0.202663 0.431834
vt 0.708943 0.339911
vt 0.696386 0.339911
vt 0.696386 0.265211
vt 0.708943 0.265211
vt 0.012557 0.771062
vt 0.000000 0.771062
vt 0.000000 0.696362
vt 0.012557 0.696362
vt 0.291970 0.339228
vt 0.280826 0.339228
vt 0.280826 0.264528
vt 0.291970 0.264528
vt 0.168611 0.566843
vt 0.179754 0.566843
vt 0.179754 0.641543
vt 0.168611 0.641543
vt 0.561964 0.265211
vt 0.561964 0.257837
vt 0.550266 0.576478
vt 0.550266 0.587622
vt 0.542892 0.587622
vt 0.542892 0.576478
vt 0.236094 0.431834
vt 0.247237 0.431834
vt 0.247237 0.566256
vt 0.236094 0.566256
vt 0.236094 0.566256
vt 0.224950 0.566256
vt 0.224950 0.431834
vt 0.236094 0.431834
vt 0.146979 0.688988
vt 0.146979 0.696362
vt 0.169232 0.566843
vt 0.158088 0.566843
vt 0.158088 0.431834
vt 0.169232 0.431834
vt 0.291970 0.347352
vt 0.280826 0.347352
vt 0.012557 0.779186
vt 0.000000 0.779186
vt 0.708943 0.348034
vt 0.696386 0.348035
vt 0.012557 0.849575
vt 0.000000 0.849575
vt 0.280047 0.639035
vt 0.268903 0.639035
vt 0.268903 0.568645
vt 0.280047 0.568645
vt 0.551016 0.565334
vt 0.551016 0.576478
vt 0.542892 0.576478
vt 0.542892 0.565334
vt 0.169232 0.431834
vt 0.180376 0.431834
vt 0.180376 0.566843
vt 0.169232 0.566843
vt 0.561377 0.348034
vt 0.561377 0.339911
vt 0.147566 0.771062
vt 0.147566 0.779186
vt 0.438613 0.778106
vt 0.449136 0.778106
vt 0.280826 0.778106
vt 0.293483 0.778106
vt 0.845755 0.346955
vt 0.858412 0.346955
vt 0.158088 0.664808
vt 0.147566 0.664808
vt 0.147566 0.594022
vt 0.158088 0.594022
vt 0.438613 0.770988
vt 0.449136 0.770988
vt 0.280826 0.770988
vt 0.293483 0.770988
vt 0.845755 0.339837
vt 0.858412 0.339837
vt 0.430295 0.770988
vt 0.430295 0.778106
vt 0.542892 0.619810
vt 0.542892 0.609288
vt 0.550011 0.609288
vt 0.550011 0.619810
vt 0.258381 0.431834
vt 0.268903 0.431834
vt 0.268903 0.568645
vt 0.258381 0.568645
vt 0.279426 0.568645
vt 0.268903 0.568645
vt 0.268903 0.431834
vt 0.279426 0.431834
vt 0.708943 0.346955
vt 0.708943 0.339837
vt 0.438613 0.695135
vt 0.449136 0.695135
vt 0.280826 0.695135
vt 0.293483 0.695135
vt 0.845755 0.263984
vt 0.858412 0.263984
vt 0.258381 0.568645
vt 0.268903 0.568645
vt 0.268903 0.644498
vt 0.258381 0.644498
vt 0.438613 0.688538
vt 0.449136 0.688538
vt 0.280826 0.688538
vt 0.293483 0.688538
vt 0.845755 0.257387
vt 0.858412 0.257387
vt 0.427888 0.688538
vt 0.427888 0.695135
vt 0.542892 0.630333
vt 0.542892 0.619810
vt 0.549490 0.619810
vt 0.549490 0.630333
vt 0.213185 0.700720
vt 0.202663 0.700720
vt 0.202663 0.566316
vt 0.213185 0.566316
vt 0.711350 0.263984
vt 0.711350 0.257387
vt 0.213185 0.566316
vt 0.223708 0.566316
vt 0.223708 0.700720
vt 0.213185 0.700720
vt 0.438613 0.600685
vt 0.449136 0.600685
vt 0.280826 0.600685
vt 0.293483 0.600685
vt 0.845755 0.169534
vt 0.858412 0.169534
vt 0.168611 0.654696
vt 0.158088 0.654696
vt 0.158088 0.566843
vt 0.168611 0.566843
vt 0.428039 0.593339
vt 0.428039 0.600685
vt 0.550238 0.598765
vt 0.550238 0.609288
vt 0.542892 0.609288
vt 0.542892 0.598765
vt 0.532370 0.565335
vt 0.542892 0.565335
vt 0.542892 0.699890
vt 0.532370 0.699890
vt 0.711199 0.169534
vt 0.711199 0.162188
vt 0.257760 0.700573
vt 0.247237 0.700573
vt 0.247237 0.566018
vt 0.257760 0.566018
vn 0.0000 0.0000 -1.0000
vn 0.0000 0.0000 1.0000
vn 1.0000 0.0000 0.0000
vn 0.0000 -1.0000 0.0000
vn 0.0000 1.0000 0.0000
vn -1.0000 0.0000 0.0000
usemtl Material.001
s off
f 34/1/1 33/2/1 30/3/1 29/4/1
f 38/5/2 37/6/2 26/7/2 25/8/2
f 11/9/3 8/10/3 6/11/3 12/12/3
f 12/13/2 6/14/2 2/15/2 9/16/2
f 3/17/4 7/18/4 5/19/4 1/20/4
f 8/21/5 4/22/5 2/23/5 6/24/5
f 60/25/2 12/13/2 9/16/2 57/26/2
f 59/27/3 11/9/3 12/12/3 60/28/3
f 58/29/1 10/30/1 11/31/1 59/32/1
f 57/33/6 9/34/6 10/35/6 58/36/6
f 15/37/1 13/38/1 14/39/1 16/40/1
f 62/41/1 61/42/1 22/43/1 21/44/1
f 17/45/5 20/46/5 14/47/5 13/48/5
f 20/49/3 19/50/3 16/51/3 14/52/3
f 8/10/3 11/9/3 19/50/3 20/49/3
f 4/22/5 8/21/5 20/46/5 17/45/5
f 11/53/4 10/54/4 18/55/4 19/56/4
f 10/57/6 4/58/6 17/59/6 18/60/6
f 24/61/4 23/62/4 21/63/4 22/64/4
f 64/65/2 63/66/2 23/67/2 24/68/2
f 61/69/3 64/70/3 24/71/3 22/72/3
f 63/73/6 62/74/6 21/75/6 23/76/6
f 25/77/6 26/78/6 27/79/6 28/80/6
f 32/81/6 31/82/6 29/83/6 30/84/6
f 143/85/3 141/86/3 47/87/3 48/88/3
f 32/89/4 36/90/4 52/91/4 50/92/4
f 35/93/5 34/94/5 29/95/5 31/96/5
f 37/97/5 40/98/5 27/99/5 26/100/5
f 40/101/1 39/102/1 28/103/1 27/104/1
f 83/105/1 81/106/1 45/107/1 43/108/1
f 15/109/4 18/110/4 36/111/4 33/112/4
f 17/45/5 13/48/5 34/94/5 35/93/5
f 18/113/2 17/114/2 35/115/2 36/116/2
f 13/38/1 15/37/1 33/2/1 34/1/1
f 4/117/1 10/118/1 39/102/1 40/101/1
f 2/23/5 4/22/5 40/98/5 37/97/5
f 10/119/4 9/120/4 38/121/4 39/122/4
f 9/16/2 2/15/2 37/6/2 38/5/2
f 48/123/4 47/124/4 41/125/4 42/126/4
f 45/127/4 46/128/4 44/129/4 43/130/4
f 84/131/2 82/132/2 44/133/2 46/134/2
f 82/135/6 83/136/6 43/137/6 44/138/6
f 144/139/1 143/140/1 48/141/1 42/142/1
f 81/143/3 84/144/3 46/145/3 45/146/3
f 141/147/2 142/148/2 41/149/2 47/150/2
f 142/151/6 144/152/6 42/153/6 41/154/6
f 52/155/2 51/156/2 49/157/2 50/158/2
f 35/93/5 31/96/5 49/159/5 51/160/5
f 36/161/3 35/162/3 51/163/3 52/164/3
f 31/82/6 32/81/6 50/165/6 49/166/6
f 1/167/6 56/168/6 53/169/6 3/170/6
f 3/171/1 53/172/1 54/173/1 7/174/1
f 7/175/3 54/176/3 55/177/3 5/178/3
f 5/179/2 55/180/2 56/181/2 1/182/2
f 68/183/5 65/184/5 76/185/5 73/186/5
f 53/172/1 58/29/1 59/32/1 54/173/1
f 54/176/3 59/27/3 60/28/3 55/177/3
f 55/180/2 60/25/2 57/26/2 56/181/2
f 58/29/1 53/172/1 70/187/1 69/188/1
f 67/189/3 66/190/3 64/70/3 61/69/3
f 66/191/2 68/192/2 63/66/2 64/65/2
f 65/193/1 67/194/1 61/42/1 62/41/1
f 15/37/1 16/40/1 67/194/1 65/193/1
f 19/195/2 18/196/2 68/192/2 66/191/2
f 16/51/3 19/50/3 66/190/3 67/189/3
f 18/197/6 15/198/6 65/199/6 68/200/6
f 71/201/6 72/202/6 69/203/6 70/204/6
f 73/205/6 76/206/6 75/207/6 74/208/6
f 62/209/4 63/210/4 74/211/4 75/212/4
f 63/66/2 68/192/2 73/213/2 74/214/2
f 57/215/5 58/216/5 69/217/5 72/218/5
f 56/181/2 57/26/2 72/219/2 71/220/2
f 53/221/4 56/222/4 71/223/4 70/224/4
f 65/193/1 62/41/1 75/225/1 76/226/1
f 93/227/3 96/228/3 80/229/3 77/230/3
f 94/231/6 95/232/6 78/233/6 79/234/6
f 96/235/2 94/236/2 79/237/2 80/238/2
f 95/239/1 93/240/1 77/241/1 78/242/1
f 80/238/2 84/131/2 85/243/2 86/244/2
f 79/234/6 78/233/6 83/136/6 82/135/6
f 80/238/2 79/237/2 82/132/2 84/131/2
f 78/242/1 77/241/1 81/106/1 83/105/1
f 87/245/3 86/246/3 85/247/3 88/248/3
f 84/249/4 81/250/4 88/251/4 85/252/4
f 81/106/1 77/241/1 87/253/1 88/254/1
f 77/230/5 80/229/5 86/255/5 87/256/5
f 101/257/1 103/258/1 91/259/1 89/260/1
f 102/261/2 104/262/2 92/263/2 90/264/2
f 104/265/6 101/266/6 89/267/6 92/268/6
f 103/269/3 102/270/3 90/271/3 91/272/3
f 89/260/1 91/259/1 93/240/1 95/239/1
f 90/264/2 92/263/2 94/236/2 96/235/2
f 92/268/6 89/267/6 95/232/6 94/231/6
f 93/240/1 91/259/1 99/273/1 100/274/1
f 99/275/3 98/276/3 97/277/3 100/278/3
f 96/279/4 93/280/4 100/281/4 97/282/4
f 91/283/5 90/284/5 98/285/5 99/286/5
f 90/264/2 96/235/2 97/287/2 98/288/2
f 102/289/4 103/290/4 110/291/4 111/292/4
f 108/293/6 105/294/6 101/266/6 104/265/6
f 106/295/2 108/296/2 104/262/2 102/261/2
f 105/297/1 107/298/1 103/258/1 101/257/1
f 30/3/1 33/2/1 107/298/1 105/297/1
f 36/299/2 32/300/2 108/296/2 106/295/2
f 32/81/6 30/84/6 105/294/6 108/293/6
f 33/301/3 36/302/3 106/303/3 107/304/3
f 109/305/3 112/306/3 111/307/3 110/308/3
f 107/309/5 106/310/5 112/311/5 109/312/5
f 103/258/1 107/298/1 109/313/1 110/314/1
f 106/295/2 102/261/2 111/315/2 112/316/2
f 25/77/6 28/80/6 115/317/6 116/318/6
f 38/5/2 25/8/2 116/319/2 113/320/2
f 28/103/1 39/102/1 114/321/1 115/322/1
f 39/323/3 38/324/3 113/325/3 114/326/3
f 116/318/6 115/317/6 120/327/6 118/328/6
f 113/320/2 116/319/2 118/329/2 117/330/2
f 115/322/1 114/321/1 119/331/1 120/332/1
f 113/320/2 117/330/2 124/333/2 123/334/2
f 122/335/3 123/336/3 124/337/3 121/338/3
f 117/339/4 119/340/4 121/341/4 124/342/4
f 114/343/5 113/344/5 123/345/5 122/346/5
f 119/331/1 114/321/1 122/347/1 121/348/1
f 118/328/6 120/327/6 128/349/6 126/350/6
f 117/330/2 118/329/2 126/351/2 125/352/2
f 120/332/1 119/331/1 127/353/1 128/354/1
f 119/355/3 117/356/3 125/357/3 127/358/3
f 126/350/6 128/349/6 132/359/6 130/360/6
f 125/352/2 126/351/2 130/361/2 129/362/2
f 128/354/1 127/353/1 131/363/1 132/364/1
f 125/352/2 129/362/2 136/365/2 135/366/2
f 134/367/3 135/368/3 136/369/3 133/370/3
f 129/371/4 131/372/4 133/373/4 136/374/4
f 131/363/1 127/353/1 134/375/1 133/376/1
f 127/377/5 125/378/5 135/379/5 134/380/5
f 130/360/6 132/359/6 140/381/6 138/382/6
f 129/362/2 130/361/2 138/383/2 137/384/2
f 132/364/1 131/363/1 139/385/1 140/386/1
f 131/387/3 129/388/3 137/389/3 139/390/3
f 138/382/6 140/381/6 144/152/6 142/151/6
f 137/384/2 138/383/2 142/148/2 141/147/2
f 140/386/1 139/385/1 143/140/1 144/139/1
f 137/384/2 141/147/2 148/391/2 147/392/2
f 146/393/3 147/394/3 148/395/3 145/396/3
f 141/397/4 143/398/4 145/399/4 148/400/4
f 143/140/1 139/385/1 146/401/1 145/402/1
f 139/403/5 137/404/5 147/405/5 146/406/5
o Cube.001_Cube.002
v -1.974308 0.959419 -0.635642
v -1.974308 1.062305 -0.635642
v -1.974308 0.959419 -4.023653
v -1.974308 1.062305 -4.023653
v 0.025692 0.959419 -0.635642
v 0.025692 1.062305 -0.635642
v 0.025692 0.959419 -4.023653
v 0.025692 1.062305 -4.023653
vt 0.952242 0.000000
vt 0.976121 0.000000
vt 0.976121 0.786326
vt 0.952242 0.786326
vt 1.000000 0.928363
vt 0.976121 0.928363
vt 0.976121 0.464182
vt 1.000000 0.464182
vt 0.928363 0.000000
vt 0.952242 0.000000
vt 0.952242 0.786326
vt 0.928363 0.786326
vt 1.000000 0.464182
vt 0.976121 0.464182
vt 1.000000 0.000000
vt 0.464182 0.000000
vt 0.464182 0.786326
vt 0.000000 0.000000
vt 0.464182 0.000000
vt 0.464182 0.786326
vt 0.000000 0.786326
vn -1.0000 0.0000 0.0000
vn 0.0000 0.0000 -1.0000
vn 1.0000 0.0000 0.0000
vn 0.0000 0.0000 1.0000
vn 0.0000 -1.0000 0.0000
vn 0.0000 1.0000 0.0000
usemtl Material.005
s off
f 149/407/7 150/408/7 152/409/7 151/410/7
f 151/411/8 152/412/8 156/413/8 155/414/8
f 155/415/9 156/416/9 154/417/9 153/418/9
f 153/419/10 154/420/10 150/408/10 149/421/10
f 151/422/11 155/415/11 153/418/11 149/423/11
f 156/424/12 152/425/12 150/426/12 154/427/12
o Cube.002_Cube.003
v -1.988770 2.142332 -0.635642
v -1.988770 2.245218 -0.635642
v -1.988770 2.142332 -4.023653
v -1.988770 2.245218 -4.023653
v 0.011230 2.142332 -0.635642
v 0.011230 2.245218 -0.635642
v 0.011230 2.142332 -4.023653
v 0.011230 2.245218 -4.023653
vt 0.952242 0.000000
vt 0.976121 0.000000
vt 0.976121 0.786326
vt 0.952242 0.786326
vt 1.000000 0.928363
vt 0.976121 0.928363
vt 0.976121 0.464182
vt 1.000000 0.464182
vt 0.928363 0.000000
vt 0.952242 0.000000
vt 0.952242 0.786326
vt 0.928363 0.786326
vt 1.000000 0.464182
vt 0.976121 0.464182
vt 1.000000 0.000000
vt 0.464182 0.000000
vt 0.464182 0.786326
vt 0.000000 0.000000
vt 0.464182 0.000000
vt 0.464182 0.786326
vt 0.000000 0.786326
vn -1.0000 0.0000 0.0000
vn 0.0000 0.0000 -1.0000
vn 1.0000 0.0000 0.0000
vn 0.0000 0.0000 1.0000
vn 0.0000 -1.0000 0.0000
vn 0.0000 1.0000 0.0000
usemtl Material.004
s off
f 157/428/13 158/429/13 160/430/13 159/431/13
f 159/432/14 160/433/14 164/434/14 163/435/14
f 163/436/15 164/437/15 162/438/15 161/439/15
f 161/440/16 162/441/16 158/429/16 157/442/16
f 159/443/17 163/436/17 161/439/17 157/444/17
f 164/445/18 160/446/18 158/447/18 162/448/18
o Cube.003_Cube.004
v -1.871547 3.375169 -0.635642
v -1.871547 3.478055 -0.635642
v -1.871547 3.375169 -4.023653
v -1.871547 3.478055 -4.023653
v 0.018723 3.375169 -0.635642
v 0.018723 3.478055 -0.635642
v 0.018723 3.375169 -4.023653
v 0.018723 3.478055 -4.023653
vt 0.949679 0.000000
vt 0.974840 0.000000
vt 0.974840 0.828527
vt 0.949679 0.828527
vt 1.000000 0.924518
vt 0.974840 0.924518
vt 0.974840 0.462259
vt 1.000000 0.462259
vt 0.924519 0.000000
vt 0.949679 0.000000
vt 0.949679 0.828527
vt 0.924518 0.828527
vt 1.000000 0.462259
vt 0.974840 0.462259
vt 1.000000 0.000000
vt 0.462259 0.000000
vt 0.462259 0.828527
vt 0.000000 0.000000
vt 0.462259 0.000000
vt 0.462259 0.828527
vt 0.000000 0.828527
vn -1.0000 0.0000 0.0000
vn 0.0000 0.0000 -1.0000
vn 1.0000 0.0000 0.0000
vn 0.0000 0.0000 1.0000
vn 0.0000 -1.0000 0.0000
vn 0.0000 1.0000 0.0000
usemtl Material.003
s off
f 165/449/19 166/450/19 168/451/19 167/452/19
f 167/453/20 168/454/20 172/455/20 171/456/20
f 171/457/21 172/458/21 170/459/21 169/460/21
f 169/461/22 170/462/22 166/450/22 165/463/22
f 167/464/23 171/457/23 169/460/23 165/465/23
f 172/466/24 168/467/24 166/468/24 170/469/24
o Cube.004_Cube.006
v -1.870715 4.462645 -0.635642
v -1.870715 4.565531 -0.635642
v -1.870715 4.462645 -4.023653
v -1.870715 4.565531 -4.023653
v 0.019554 4.462645 -0.635642
v 0.019554 4.565531 -0.635642
v 0.019554 4.462645 -4.023653
v 0.019554 4.565531 -4.023653
vt 0.949679 0.000000
vt 0.974840 0.000000
vt 0.974840 0.828527
vt 0.949679 0.828527
vt 1.000000 0.924518
vt 0.974840 0.924518
vt 0.974840 0.462259
vt 1.000000 0.462259
vt 0.924519 0.000000
vt 0.949679 0.000000
vt 0.949679 0.828527
vt 0.924518 0.828527
vt 1.000000 0.462259
vt 0.974840 0.462259
vt 1.000000 0.000000
vt 0.462259 0.000000
vt 0.462259 0.828527
vt 0.000000 0.000000
vt 0.462259 0.000000
vt 0.462259 0.828527
vt 0.000000 0.828527
vn -1.0000 0.0000 0.0000
vn 0.0000 0.0000 -1.0000
vn 1.0000 0.0000 0.0000
vn 0.0000 0.0000 1.0000
vn 0.0000 -1.0000 0.0000
vn 0.0000 1.0000 0.0000
usemtl Material.002
s off
f 173/470/25 174/471/25 176/472/25 175/473/25
f 175/474/26 176/475/26 180/476/26 179/477/26
f 179/478/27 180/479/27 178/480/27 177/481/27
f 177/482/28 178/483/28 174/471/28 173/484/28
f 175/485/29 179/478/29 177/481/29 173/486/29
f 180/487/30 176/488/30 174/489/30 178/490/30
o Cube.005_Cube.007
v -1.915868 5.561260 -0.612735
v -1.915868 5.664146 -0.612735
v -1.915868 5.561260 -4.046560
v -1.915868 5.664146 -4.046560
v -0.025598 5.561260 -0.612735
v -0.025598 5.664146 -0.612735
v -0.025598 5.561260 -4.046560
v -0.025598 5.664146 -4.046560
vt 0.974839 0.839731
vt 0.949679 0.839731
vt 0.949679 0.000000
vt 0.974840 0.000000
vt 1.000000 0.924518
vt 0.974839 0.924518
vt 0.974839 0.462259
vt 1.000000 0.462259
vt 0.949679 0.839731
vt 0.924519 0.839731
vt 0.924519 0.000000
vt 0.949679 0.000000
vt 1.000000 0.462259
vt 0.974839 0.462259
vt 0.974839 0.000000
vt 1.000000 0.000000
vt 0.462259 0.000000
vt 0.924518 0.000000
vt 0.924518 0.839731
vt 0.462259 0.839731
vt 0.000000 0.000000
vt 0.462259 0.000000
vt 0.462259 0.839731
vt 0.000000 0.839731
vn -1.0000 0.0000 0.0000
vn 0.0000 0.0000 -1.0000
vn 1.0000 0.0000 0.0000
vn 0.0000 0.0000 1.0000
vn 0.0000 -1.0000 0.0000
vn 0.0000 1.0000 0.0000
usemtl Material.006
s off
f 181/491/31 182/492/31 184/493/31 183/494/31
f 183/495/32 184/496/32 188/497/32 187/498/32
f 187/499/33 188/500/33 186/501/33 185/502/33
f 185/503/34 186/504/34 182/505/34 181/506/34
f 183/507/35 187/508/35 185/509/35 181/510/35
f 188/511/36 184/512/36 182/513/36 186/514/36
